# xmcd
#
# Track frame offsets: 
#        150
#        14551
#        27148
#        40732
#        57199
#        69527
#        81776
#        94534
#        108162
#        120907
#        135919
#        150162
#        168295
#        180723
#        194508
#
# Disc length: 2708 seconds
#
# Revision: 1
# Processed by: cddbd v1.5.2PL0 Copyright (c) Steve Scherf et al.
# Submitted via: ExactAudioCopyFreeDBPlugin 1.0
#
DISCID=ac0a920f
DTITLE=Pierre Perret - La bête est revenue
DYEAR=2011
DGENRE=Variété française
TTITLE0=La bête est revenue
TTITLE1=Jeanne
TTITLE2=Vert de colère
TTITLE3=Le temps des tabliers bleus
TTITLE4=Au nom de Dieu
TTITLE5=L'eau de la rivière
TTITLE6=L'ami fidèle
TTITLE7=Danse avec Loulou
TTITLE8=Le vieux marin
TTITLE9=Amélie
TTITLE10=Ferdinand
TTITLE11=Je n'ai jamais aimé que vous
TTITLE12=La jeune fille
TTITLE13=Comment papa
TTITLE14=Demain dès l'aube
EXTD=Intégrale 1957 - 2011
EXTT0=
EXTT1=
EXTT2=
EXTT3=
EXTT4=
EXTT5=
EXTT6=
EXTT7=
EXTT8=
EXTT9=
EXTT10=
EXTT11=
EXTT12=
EXTT13=
EXTT14=
PLAYORDER=
